<svg id="svg" version="1.1" xmlns="http://www.w3.org/2000/svg" xmlns:xlink="http://www.w3.org/1999/xlink" width="400" height="560.1895734597157" viewBox="0, 0, 400,560.1895734597157"><g id="svgg"><path id="path0" d="M140.651 213.700 C 140.245 218.555,140.621 288.381,141.056 288.816 C 141.795 289.555,258.511 289.329,259.056 288.588 C 259.418 288.096,259.606 213.229,259.250 211.100 C 259.223 210.935,232.581 210.800,200.047 210.800 L 140.894 210.800 140.651 213.700 M240.243 229.900 C 241.202 231.163,241.030 269.849,240.064 270.366 C 238.780 271.053,161.245 271.066,159.962 270.380 C 159.003 269.866,158.750 231.509,159.696 229.995 C 160.427 228.825,239.357 228.732,240.243 229.900 M143.300 309.496 C 144.565 309.575,146.635 309.575,147.900 309.496 C 149.165 309.416,148.130 309.351,145.600 309.351 C 143.070 309.351,142.035 309.416,143.300 309.496 M241.100 309.497 C 242.695 309.573,245.305 309.573,246.900 309.497 C 248.495 309.421,247.190 309.359,244.000 309.359 C 240.810 309.359,239.505 309.421,241.100 309.497 M254.100 309.491 C 254.925 309.578,256.275 309.578,257.100 309.491 C 257.925 309.405,257.250 309.334,255.600 309.334 C 253.950 309.334,253.275 309.405,254.100 309.491 M130.590 320.525 L 120.800 330.258 120.800 339.729 L 120.800 349.200 200.000 349.200 L 279.200 349.200 279.200 339.777 L 279.200 330.353 277.500 328.510 C 276.565 327.497,275.468 326.382,275.062 326.034 C 274.656 325.685,271.062 322.160,267.075 318.200 L 259.827 311.000 200.103 310.896 L 140.380 310.792 130.590 320.525 " stroke="none" fill="#fcfcfc" fill-rule="evenodd"></path><path id="path1" d="M170.300 210.300 C 186.635 210.358,213.365 210.358,229.700 210.300 C 246.035 210.242,232.670 210.195,200.000 210.195 C 167.330 210.195,153.965 210.242,170.300 210.300 M140.192 250.000 C 140.192 271.670,140.241 280.535,140.300 269.700 C 140.359 258.865,140.359 241.135,140.300 230.300 C 140.241 219.465,140.192 228.330,140.192 250.000 M259.792 250.000 C 259.792 271.670,259.841 280.535,259.900 269.700 C 259.959 258.865,259.959 241.135,259.900 230.300 C 259.841 219.465,259.792 228.330,259.792 250.000 M160.196 230.503 C 160.076 230.996,160.030 239.950,160.093 250.400 L 160.208 269.400 160.304 249.900 L 160.400 230.400 200.000 230.400 L 239.600 230.400 239.696 249.900 L 239.792 269.400 239.907 250.400 C 239.970 239.950,239.925 231.001,239.806 230.512 L 239.591 229.625 200.002 229.616 L 160.414 229.606 160.196 230.503 M160.342 270.102 C 160.508 270.268,177.464 270.358,198.022 270.302 L 235.400 270.200 197.720 270.000 C 176.996 269.890,160.176 269.936,160.342 270.102 M237.600 270.000 L 235.400 270.270 237.476 270.335 C 238.618 270.371,239.664 270.220,239.800 270.000 C 239.936 269.780,239.992 269.629,239.924 269.665 C 239.856 269.701,238.810 269.852,237.600 270.000 M169.700 289.900 C 185.925 289.958,212.475 289.958,228.700 289.900 C 244.925 289.842,231.650 289.795,199.200 289.795 C 166.750 289.795,153.475 289.842,169.700 289.900 M140.000 309.640 C 140.000 309.882,137.377 312.688,134.170 315.877 C 130.964 319.065,128.411 321.744,128.497 321.831 C 128.583 321.917,130.565 320.055,132.901 317.694 C 135.236 315.332,137.474 313.115,137.874 312.767 C 139.662 311.210,141.203 309.200,140.610 309.200 C 140.274 309.200,140.000 309.398,140.000 309.640 M172.131 309.500 C 184.413 309.559,204.393 309.559,216.531 309.500 C 228.669 309.441,218.620 309.393,194.200 309.393 C 169.780 309.393,159.849 309.441,172.131 309.500 M250.300 309.482 C 250.795 309.578,251.605 309.578,252.100 309.482 C 252.595 309.387,252.190 309.309,251.200 309.309 C 250.210 309.309,249.805 309.387,250.300 309.482 M258.627 309.440 C 259.156 309.660,279.092 329.573,279.611 330.400 C 279.843 330.770,279.990 330.815,279.994 330.517 C 279.997 330.251,275.500 325.540,270.000 320.047 C 264.500 314.555,260.000 309.868,260.000 309.631 C 260.000 309.394,259.595 309.214,259.100 309.232 C 258.605 309.249,258.392 309.343,258.627 309.440 M125.917 324.078 C 124.882 325.135,124.169 326.000,124.334 326.000 C 124.727 326.000,128.202 322.456,127.975 322.287 C 127.879 322.215,126.953 323.021,125.917 324.078 M121.705 328.302 C 120.342 329.828,120.022 330.475,120.069 331.600 L 120.128 333.000 120.290 331.600 C 120.406 330.599,120.983 329.658,122.311 328.300 C 123.334 327.255,123.997 326.401,123.785 326.402 C 123.573 326.404,122.637 327.259,121.705 328.302 M120.087 341.220 C 120.024 346.871,120.133 349.173,120.480 349.520 C 121.026 350.066,279.001 350.245,279.338 349.700 C 279.440 349.535,243.766 349.400,200.062 349.400 L 120.600 349.400 120.387 341.400 L 120.174 333.400 120.087 341.220 M279.720 346.400 C 279.720 347.610,279.795 348.105,279.887 347.500 C 279.978 346.895,279.978 345.905,279.887 345.300 C 279.795 344.695,279.720 345.190,279.720 346.400 " stroke="none" fill="#d4d4d4" fill-rule="evenodd"></path><path id="path2" d="M139.068 209.065 C 138.921 209.213,138.800 227.753,138.800 250.267 L 138.800 291.200 200.002 291.200 L 261.204 291.200 261.102 250.100 L 261.000 209.000 200.168 208.899 C 166.710 208.843,139.215 208.918,139.068 209.065 M259.520 210.480 C 260.029 210.989,260.261 288.056,259.757 289.367 C 259.385 290.338,140.615 290.338,140.243 289.367 C 139.739 288.056,139.971 210.989,140.480 210.480 C 141.178 209.782,258.822 209.782,259.520 210.480 M160.307 250.034 C 160.248 260.832,160.275 269.742,160.367 269.834 C 160.585 270.051,239.415 270.051,239.633 269.834 C 239.725 269.742,239.752 260.832,239.693 250.034 L 239.585 230.400 200.000 230.400 L 160.415 230.400 160.307 250.034 M238.400 250.200 L 238.400 268.800 200.000 268.800 L 161.600 268.800 161.600 250.200 L 161.600 231.600 200.000 231.600 L 238.400 231.600 238.400 250.200 M135.343 312.600 C 133.473 314.470,131.776 316.000,131.571 316.000 C 131.367 316.000,131.200 316.160,131.200 316.356 C 131.200 316.842,124.471 323.600,123.987 323.600 C 123.774 323.600,123.600 323.780,123.600 324.000 C 123.600 324.220,122.517 325.483,121.194 326.806 L 118.787 329.213 118.894 340.106 L 119.000 351.000 200.000 351.000 L 281.000 351.000 281.106 340.125 L 281.213 329.249 280.206 328.243 C 279.653 327.689,279.200 327.048,279.200 326.818 C 279.200 326.588,279.012 326.400,278.782 326.400 C 278.239 326.400,276.400 324.561,276.400 324.018 C 276.400 323.788,276.226 323.600,276.013 323.600 C 275.529 323.600,268.800 316.842,268.800 316.356 C 268.800 316.160,268.633 316.000,268.429 316.000 C 268.224 316.000,266.527 314.470,264.657 312.600 C 261.551 309.493,260.000 308.505,260.000 309.631 C 260.000 309.867,264.420 314.502,269.823 319.931 L 279.646 329.800 279.756 339.000 C 279.816 344.060,279.721 348.605,279.543 349.100 L 279.220 350.000 200.059 350.000 C 133.130 350.000,120.827 349.914,120.439 349.446 C 120.118 349.061,119.992 346.026,120.023 339.432 L 120.066 329.970 130.033 320.014 C 135.515 314.538,140.000 309.865,140.000 309.629 C 140.000 308.505,138.448 309.495,135.343 312.600 " stroke="none" fill="#949494" fill-rule="evenodd"></path><path id="path3" d="M140.560 210.961 C 140.441 211.270,140.418 212.126,140.508 212.862 C 140.656 214.069,140.678 214.033,140.736 212.500 L 140.800 210.800 199.967 210.800 C 239.974 210.800,259.199 210.933,259.337 211.210 C 259.449 211.436,259.494 211.391,259.437 211.110 C 259.275 210.310,140.867 210.161,140.560 210.961 M259.369 231.800 C 259.370 236.420,259.428 238.255,259.499 235.878 C 259.570 233.501,259.569 229.721,259.498 227.478 C 259.427 225.235,259.369 227.180,259.369 231.800 M159.696 229.995 C 158.691 231.605,159.011 269.870,160.034 270.418 C 160.493 270.664,160.957 270.777,161.064 270.669 C 161.172 270.561,160.887 270.354,160.430 270.210 C 159.483 269.909,159.088 232.105,160.014 230.374 C 160.560 229.354,239.115 229.134,239.958 230.150 C 240.290 230.549,240.385 236.118,240.307 250.512 C 240.248 261.408,240.335 270.240,240.500 270.138 C 241.083 269.778,240.833 230.677,240.243 229.900 C 239.357 228.732,160.427 228.825,159.696 229.995 M140.578 256.000 C 140.578 262.930,140.633 265.765,140.699 262.300 C 140.766 258.835,140.766 253.165,140.699 249.700 C 140.633 246.235,140.578 249.070,140.578 256.000 M259.358 265.000 C 259.358 268.080,259.421 269.287,259.497 267.682 C 259.573 266.078,259.573 263.558,259.496 262.082 C 259.419 260.607,259.357 261.920,259.358 265.000 M180.100 270.700 C 190.165 270.759,206.635 270.759,216.700 270.700 C 226.765 270.640,218.530 270.592,198.400 270.592 C 178.270 270.592,170.035 270.640,180.100 270.700 M235.744 270.678 C 236.036 270.969,239.247 270.886,239.555 270.579 C 239.653 270.480,238.773 270.400,237.600 270.400 C 236.427 270.400,235.592 270.525,235.744 270.678 M140.559 286.600 C 140.598 289.283,140.642 289.404,141.600 289.493 C 142.478 289.575,142.503 289.546,141.800 289.255 C 141.159 288.990,140.952 288.413,140.759 286.362 L 140.518 283.800 140.559 286.600 M258.881 288.818 C 258.572 289.313,258.546 289.600,258.809 289.600 C 259.038 289.600,259.332 289.322,259.462 288.983 C 259.822 288.045,259.433 287.934,258.881 288.818 M171.500 289.500 C 187.395 289.558,213.405 289.558,229.300 289.500 C 245.195 289.442,232.190 289.395,200.400 289.395 C 168.610 289.395,155.605 289.442,171.500 289.500 M140.400 310.333 C 139.840 310.955,143.834 311.000,199.915 311.000 C 252.915 311.000,260.074 311.071,260.408 311.600 C 260.617 311.930,260.791 312.041,260.794 311.846 C 260.797 311.651,260.341 311.066,259.779 310.546 L 258.759 309.600 199.879 309.633 C 145.458 309.664,140.955 309.717,140.400 310.333 M262.000 312.939 C 262.000 313.176,263.359 314.562,264.403 315.390 C 264.951 315.824,264.688 315.419,263.819 314.490 C 262.322 312.890,262.000 312.615,262.000 312.939 M135.775 314.865 C 134.602 316.128,134.602 316.129,135.683 315.365 C 136.279 314.944,136.858 314.375,136.970 314.100 C 137.281 313.341,137.058 313.484,135.775 314.865 M266.076 317.229 C 266.238 317.714,268.000 319.080,268.000 318.721 C 268.000 318.624,267.529 318.135,266.954 317.635 C 266.379 317.135,265.984 316.952,266.076 317.229 M128.581 322.062 C 127.649 323.041,127.420 323.420,128.023 322.984 C 128.947 322.316,130.636 320.400,130.300 320.400 C 130.224 320.400,129.451 321.148,128.581 322.062 M269.847 320.900 C 269.969 321.175,270.729 321.930,271.535 322.577 L 273.000 323.754 271.419 322.077 C 269.731 320.287,269.497 320.111,269.847 320.900 M123.781 326.862 C 122.849 327.841,122.620 328.220,123.223 327.784 C 124.147 327.116,125.836 325.200,125.500 325.200 C 125.424 325.200,124.651 325.948,123.781 326.862 M120.580 330.108 C 120.473 330.388,120.433 334.843,120.492 340.008 L 120.600 349.400 200.000 349.400 L 279.400 349.400 279.413 341.300 L 279.425 333.199 279.304 341.200 L 279.183 349.200 199.992 349.200 L 120.800 349.200 120.800 339.633 C 120.800 332.354,120.920 330.018,121.300 329.865 C 121.692 329.707,121.689 329.656,121.287 329.632 C 121.006 329.614,120.687 329.829,120.580 330.108 M279.301 331.400 C 279.305 332.280,279.387 332.593,279.483 332.095 C 279.579 331.598,279.575 330.878,279.475 330.495 C 279.375 330.113,279.296 330.520,279.301 331.400 " stroke="none" fill="#ececec" fill-rule="evenodd"></path><path id="path4" d="M239.800 250.200 C 239.800 261.268,239.935 270.240,240.100 270.138 C 240.265 270.036,240.400 261.064,240.400 250.200 C 240.400 239.336,240.265 230.364,240.100 230.262 C 239.935 230.160,239.800 239.132,239.800 250.200 M159.785 250.400 C 159.785 261.290,159.837 265.745,159.900 260.300 C 159.963 254.855,159.963 245.945,159.900 240.500 C 159.837 235.055,159.785 239.510,159.785 250.400 " stroke="none" fill="#dcdcdc" fill-rule="evenodd"></path></g></svg>